<svg width="32" height="32" viewBox="0 0 32 32" xmlns="http://www.w3.org/2000/svg">
    <g fill="none" fill-rule="evenodd">
        <path fill="transparent" d="M0 0h32v32H0z"/>
        <path d="M0 0h32v32H0z"/>
        <path d="m16 26.994-7.62 4.71c-.938.58-2.164.28-2.738-.669-.274-.454-.358-1-.237-1.519l2.071-8.79-6.78-5.878a2.033 2.033 0 0 1-.217-2.842 1.988 1.988 0 0 1 1.355-.699l8.898-.721 3.429-8.345a1.984 1.984 0 0 1 3.678.001l3.428 8.344 8.9.721a2.01 2.01 0 0 1 1.827 2.171 2.025 2.025 0 0 1-.69 1.37l-6.781 5.878 2.072 8.79a2.018 2.018 0 0 1-1.475 2.43 1.973 1.973 0 0 1-1.5-.243L16 26.993z" fill="#FFBE1A" fill-rule="nonzero"/>
    </g>
</svg>
