<svg width="36" height="28" viewBox="0 0 36 28" xmlns="http://www.w3.org/2000/svg" xmlns:xlink="http://www.w3.org/1999/xlink">
    <defs>
        <path id="rjxkw1f0qa" d="M0 0h26.5v24.173H0z"/>
    </defs>
    <g fill="none" fill-rule="evenodd">
        <g transform="translate(9.5)">
            <mask id="5j2q5u3eib" fill="#fff">
                <use xlink:href="#rjxkw1f0qa"/>
            </mask>
            <path d="M26.5 4.029v16.115c0 2.225-1.79 4.029-4 4.029H0V4.029C0 1.804 1.79 0 4 0h18.5c2.21 0 4 1.804 4 4.029" fill="#0CC" mask="url(#5j2q5u3eib)"/>
        </g>
        <path d="M27.605 14.493c-.975 0-1.766-.862-1.766-1.925 0-1.063.791-1.924 1.766-1.924.976 0 1.767.861 1.767 1.924s-.791 1.925-1.767 1.925zm3.557 1.14v-6.22h-.893a.827.827 0 0 0-.822.765v-.001a3.216 3.216 0 0 0-2.356-.868 3.264 3.264 0 0 0-2.91 2.194c-.45 1.32-.008 2.68.994 3.516a3.743 3.743 0 0 0 2.388.847c.846 0 1.626-.275 2.237-.728a.739.739 0 0 0 .695.495h.667zM22.359 9.416l-1.248 3.872-1.258-3.872h-1.23a.826.826 0 0 0-.783.572l-1.072 3.3-1.248-3.872h-1.749l2.054 6.218h1.755l1.36-3.99 1.359 3.99h1.756l2.053-6.218h-1.75z" fill="#FFF"/>
        <path d="M9.5 8.058H6.891c-2.208 0-4 1.803-4 4.028v3.492H2c-1.105 0-2 .902-2 2.014v4.566c0 1.113.895 2.015 2 2.015h7.5V8.058z" fill="#089CA0"/>
        <path d="M5.7 24.173c0-2.114 1.701-3.828 3.8-3.828 2.099 0 3.8 1.714 3.8 3.828S11.599 28 9.5 28c-2.099 0-3.8-1.713-3.8-3.827M26.353 24.173c0-2.114 1.701-3.828 3.8-3.828 2.099 0 3.8 1.714 3.8 3.828S32.252 28 30.153 28c-2.099 0-3.8-1.713-3.8-3.827" fill="#495057"/>
    </g>
</svg>
